<?xml version="1.0" encoding="UTF-8"?>
<!-- Generator: visioncortex VTracer 0.6.4 -->
<svg version="1.1" xmlns="http://www.w3.org/2000/svg" width="768" height="1024">
<path d="M0 0 C253.44 0 506.88 0 768 0 C768 337.92 768 675.84 768 1024 C514.56 1024 261.12 1024 0 1024 C0 686.08 0 348.16 0 0 Z " fill="#0F0535" transform="translate(0,0)"/>
<path d="M0 0 C3.12 2.2 6.05 4.57 9 7 C11.35 8.75 13.7 10.49 16.05 12.23 C18.3 14.27 19.49 16.37 21 19 C22.26 20.58 23.56 22.15 24.88 23.69 C30.75 30.77 36.04 38.26 41.39 45.75 C66.99 82.15 66.99 82.15 106 101 C111.61 101.51 116.97 100.62 122 98 C122.33 97.01 122.66 96.02 123 95 C123.66 95 124.32 95 125 95 C125.01 94.32 125.03 93.63 125.04 92.93 C125.56 71.17 126.61 50.54 142.25 33.88 C151.95 24.88 162.1 21.49 175.03 21.72 C181.59 22.18 184.98 24.29 189.88 28.44 C193.31 32.58 194.28 36.17 194.25 41.5 C194.26 42.42 194.26 43.34 194.27 44.28 C193.83 48.73 191.88 52.38 189.88 56.31 C189.35 57.36 189.35 57.36 188.8 58.43 C188.54 58.95 188.27 59.46 188 60 C191.94 57.67 194.99 55.1 198.19 51.81 C202.24 47.66 206.54 44.05 211.07 40.43 C213.66 38.28 216.1 36.07 218.54 33.75 C234.16 18.94 253.33 2.18 276.13 2.69 C284.19 3.57 291.66 6.77 297 13 C300.04 17.95 299.7 23.56 298.57 29.11 C293.09 45.99 275.68 55.33 261 63 C251.24 67.9 241.35 72.55 231.46 77.19 C210.69 86.97 189.21 101.49 181 124 C180.32 127.02 180.08 129.91 180 133 C179.95 133.73 179.9 134.46 179.85 135.21 C179.42 144.97 182.51 152.78 189 160 C201.28 173.28 219.56 178.02 236.83 180.66 C238.92 180.99 241.01 181.36 243.1 181.74 C252.32 183.42 261.54 184.51 270.88 185.44 C299.63 188.38 329.76 193.72 349.44 216.94 C356.55 226.28 358.97 236.43 358 248 C356.31 256.11 352.75 262.13 346 267 C342.75 268.66 339.48 269.91 336 271 C335.01 271.33 334.02 271.66 333 272 C331.11 272.22 329.21 272.41 327.31 272.56 C325.82 272.69 325.82 272.69 324.3 272.82 C323.54 272.88 322.78 272.94 322 273 C322.48 274.81 322.96 276.63 323.44 278.44 C323.84 279.95 323.84 279.95 324.25 281.5 C324.76 283.92 324.76 283.92 326 285 C326.89 294.59 325.59 302.22 319.44 309.75 C312.25 317.34 303.81 320.01 293.62 320.39 C278.31 320.67 266.41 316.06 254 307 C253.17 306.41 252.34 305.81 251.49 305.2 C237.03 294.25 227.18 279.35 216.96 264.63 C210.47 255.29 203.63 246.37 196.34 237.63 C195.16 236.19 194 234.72 192.85 233.26 C183.21 221.51 167.54 211.24 152.32 209.61 C145.67 209.42 140.95 209.33 136 214 C132.86 217.14 132.88 220.36 132.75 224.67 C132.7 226.01 132.7 226.01 132.65 227.38 C132.59 229.23 132.54 231.09 132.48 232.94 C131.82 250.41 125.18 265.7 112.57 277.92 C103.35 285.38 93.64 288 82 287 C75.63 285.52 71.24 282.99 67.16 277.88 C64.39 273.39 63.74 269.75 63.81 264.5 C63.82 262.84 63.82 262.84 63.83 261.16 C63.98 258.33 64.36 255.75 65 253 C57.11 258.43 50.68 265.13 44 271.94 C29.21 286.97 15.56 299.72 -5 306 C-5.99 306.33 -6.98 306.66 -8 307 C-18.24 307.8 -25.98 306.84 -33.94 300.12 C-37.81 296.64 -39.61 293.64 -40.37 288.46 C-40.62 278.63 -36.91 271.13 -30.25 264 C-19.55 254.5 -5.83 248.64 7.02 242.66 C34.29 229.94 66.21 214.33 77.34 184.22 C79.97 175.34 80.33 166 76.47 157.45 C67.73 142.86 53.15 135.32 37.25 131.12 C36.1 130.82 36.1 130.82 34.93 130.51 C24.91 128.03 14.91 127.86 4.64 127.82 C2.03 127.8 -0.58 127.78 -3.18 127.75 C-7.23 127.72 -11.28 127.69 -15.33 127.67 C-42.69 127.57 -71.64 126.53 -92.53 106.58 C-101.51 97.18 -104.41 88.22 -104.28 75.36 C-103.61 67.24 -100.03 60.43 -94 55 C-86.68 49.4 -81.02 46.66 -71.69 46.88 C-70.95 46.88 -70.21 46.89 -69.44 46.9 C-67.63 46.93 -65.81 46.96 -64 47 C-64.35 46.26 -64.7 45.53 -65.06 44.77 C-65.51 43.79 -65.97 42.82 -66.44 41.81 C-66.89 40.85 -67.34 39.89 -67.81 38.89 C-71.45 30.06 -71.86 16.98 -69.02 7.86 C-67.83 5.71 -66.57 3.89 -65 2 C-64.44 1.11 -63.89 0.23 -63.31 -0.69 C-45.53 -18.47 -18.94 -11.72 0 0 Z " fill="#9E74CE" transform="translate(254,357)"/>
<path d="M0 0 C16.53 0.17 31.24 8.95 43.44 19.38 C44.52 20.29 44.52 20.29 45.62 21.22 C47.23 22.59 48.84 23.98 50.44 25.38 C50.44 24.06 50.44 22.74 50.44 21.38 C51.43 21.38 52.42 21.38 53.44 21.38 C54.43 20.88 54.43 20.88 55.44 20.38 C55.85 21.1 56.27 21.83 56.7 22.58 C58.4 25.31 60.23 27.62 62.31 30.06 C68.19 37.15 73.47 44.64 78.83 52.12 C104.43 88.52 104.43 88.52 143.44 107.38 C149.05 107.89 154.41 107 159.44 104.38 C159.77 103.38 160.1 102.39 160.44 101.38 C161.1 101.38 161.76 101.38 162.44 101.38 C162.77 100.38 163.1 99.39 163.44 98.38 C163.26 105.18 161.89 110.13 157.44 115.38 C150.5 121.75 143.35 122.72 134.15 122.56 C123.14 122.01 113.68 119.36 103.44 115.38 C101.92 114.82 101.92 114.82 100.37 114.25 C86.16 109 72.48 102.58 59.15 95.39 C51.98 91.57 44.63 88.14 37.25 84.75 C0.59 67.89 0.59 67.89 -6.56 60.38 C-7.33 59.61 -8.09 58.85 -8.88 58.06 C-9.76 57.18 -10.65 56.29 -11.56 55.38 C-12.13 54.81 -12.71 54.25 -13.3 53.68 C-22.6 44.51 -26.86 36.36 -27.1 23.17 C-26.95 16.4 -24.15 12.98 -19.56 8.38 C-18.9 7.38 -18.24 6.39 -17.56 5.38 C-14.78 4.24 -14.78 4.24 -11.5 3.25 C-1.04 0.04 -1.04 0.04 0 0 Z " fill="#7045B0" transform="translate(216.5625,350.625)"/>
<path d="M0 0 C23.39 -0.97 45.62 11.29 65.59 22.15 C66.82 22.82 68.05 23.48 69.28 24.15 C69.89 24.48 70.5 24.82 71.13 25.16 C75.89 27.7 80.76 29.89 85.72 32.03 C94.47 35.81 102.7 40.32 110.97 45.05 C113.53 46.5 116.12 47.89 118.72 49.28 C123.92 52.1 128.94 55.19 133.96 58.32 C135.88 59.51 137.82 60.66 139.79 61.77 C140.49 62.22 141.19 62.68 141.91 63.15 C141.91 63.81 141.91 64.47 141.91 65.15 C142.44 65.38 142.98 65.61 143.53 65.84 C149.79 69.3 153.73 73.79 156.91 80.15 C156.91 80.81 156.91 81.47 156.91 82.15 C157.57 82.48 158.23 82.81 158.91 83.15 C162.48 90.53 162.81 98.56 160.22 106.28 C158.53 110.78 158.53 110.78 155.95 112.33 C155.27 112.6 154.6 112.87 153.91 113.15 C152.94 113.81 151.97 114.47 150.97 115.15 C148.3 116.9 145.9 118.1 142.91 119.15 C146.72 120.53 149.98 119.83 153.91 119.15 C147.13 125.37 136.52 124.81 127.88 124.59 C116.02 123.86 105.34 118.05 95.91 111.15 C95.08 110.56 94.25 109.96 93.4 109.35 C78.94 98.4 69.09 83.5 58.87 68.78 C52.37 59.44 45.53 50.52 38.25 41.78 C37.06 40.34 35.91 38.88 34.76 37.41 C25.12 25.66 9.45 15.39 -5.78 13.76 C-12.47 13.57 -17.06 13.54 -22.09 18.15 C-22.75 18.48 -23.41 18.81 -24.09 19.15 C-24.43 14.12 -23.08 11.93 -20 8.09 C-14.26 2.26 -7.95 0.58 0 0 Z " fill="#7045B0" transform="translate(412.09375,552.84765625)"/>
<path d="M0 0 C2.56 0.31 2.56 0.31 4.44 1.5 C5.56 3.31 5.56 3.31 5.38 5.88 C4.56 8.31 4.56 8.31 2.56 10.31 C1 10.41 -0.56 10.44 -2.12 10.44 C-24.34 12.23 -45.1 36.46 -58.79 51.98 C-60.74 54.39 -62.59 56.84 -64.44 59.31 C-66.12 61.48 -67.82 63.65 -69.52 65.81 C-71.35 68.16 -73.18 70.53 -75 72.89 C-77.08 75.59 -79.19 78.24 -81.38 80.86 C-85.68 85.69 -85.68 85.69 -87.62 91.61 C-87.28 93.52 -86.86 95.42 -86.44 97.31 C-89.3 102.74 -89.3 102.74 -92.44 104.31 C-96.45 104.85 -97.98 104.64 -101.31 102.25 C-103.44 99.31 -103.44 99.31 -104.06 95.81 C-103.26 91.32 -102.15 89.94 -98.44 87.31 C-97.16 87.22 -95.87 87.13 -94.55 87.04 C-91.06 86.67 -90.54 86.41 -87.82 83.83 C-87.08 82.75 -86.33 81.67 -85.56 80.56 C-84.71 79.37 -83.86 78.18 -83.01 76.99 C-82.59 76.38 -82.16 75.77 -81.72 75.14 C-79.69 72.26 -77.54 69.47 -75.38 66.69 C-74.96 66.14 -74.54 65.6 -74.1 65.04 C-72.89 63.46 -71.66 61.89 -70.44 60.31 C-69.76 59.43 -69.07 58.55 -68.37 57.65 C-31.68 11.56 -31.68 11.56 -8.03 6.6 C-6.75 6.46 -6.75 6.46 -5.44 6.31 C-5.25 5.38 -5.25 5.38 -5.06 4.44 C-4.15 1.34 -3.21 0.41 0 0 Z " fill="#3B2671" transform="translate(246.4375,577.6875)"/>
<path d="M0 0 C2.5 1.5 2.5 1.5 4 4 C4.6 6.81 4.67 9.2 4 12 C1.46 14.91 0.05 15.91 -3.81 16.25 C-4.9 16.13 -4.9 16.13 -6 16 C-6.25 16.7 -6.51 17.4 -6.77 18.12 C-8.15 21.35 -9.87 24.15 -11.75 27.12 C-14.85 32.08 -17.74 37.1 -20.51 42.25 C-35.67 70.15 -54.56 99.15 -85.94 110.08 C-88.08 110.89 -88.08 110.89 -89.59 112.59 C-91 114 -91 114 -94.06 114.31 C-97 114 -97 114 -99 112 C-99.25 109 -99.25 109 -99 106 C-97 104 -97 104 -94.12 103.69 C-90.74 104.03 -89.46 104.73 -87 107 C-87 106.34 -87 105.68 -87 105 C-83.37 104.01 -79.74 103.02 -76 102 C-76 101.34 -76 100.68 -76 100 C-75.2 99.6 -75.2 99.6 -74.38 99.19 C-62.7 93.04 -52.05 84.23 -45 73 C-43.78 71.35 -42.55 69.71 -41.31 68.06 C-35.31 59.83 -30.31 51.02 -25.23 42.2 C-24.76 41.39 -24.29 40.57 -23.8 39.73 C-22.86 38.09 -21.91 36.44 -20.97 34.8 C-17.87 29.42 -14.61 24.22 -11.05 19.13 C-9.79 17.07 -9.79 17.07 -10.27 14.84 C-10.99 12.95 -10.99 12.95 -12 11 C-12.35 7.2 -12.53 4.86 -10.5 1.56 C-6.97 -0.64 -4.05 -0.8 0 0 Z " fill="#422B79" transform="translate(622,345)"/>
<path d="M0 0 C6.39 5.49 6.39 5.49 7.11 9.83 C7.39 15.49 6.92 19.57 3.16 23.94 C-1.09 27.89 -5.41 28.93 -11.07 28.73 C-15.97 27.82 -19.04 24.75 -22.25 21.12 C-23.89 16.78 -24.17 12.88 -23.31 8.31 C-21.3 4.27 -18.79 1.27 -15 -1.19 C-9.49 -2.21 -5.09 -2.59 0 0 Z " fill="#936BC1" transform="translate(438.3125,625.6875)"/>
<path d="M0 0 C3.94 2.57 6.75 5.62 8.88 9.88 C9.25 15.48 9.06 19.04 5.88 23.88 C0.83 28.43 -2.51 29.39 -9.22 29.36 C-14.08 28.55 -17.11 25.64 -20.12 21.88 C-21.59 17.49 -21.86 13.45 -21.12 8.88 C-16.58 0.66 -9.11 -3.28 0 0 Z " fill="#8E68BF" transform="translate(192.125,525.125)"/>
<path d="M0 0 C4.01 3.54 6.39 6.37 7.19 11.75 C6.37 17.67 4.4 21.75 0.06 25.88 C-4.52 27.91 -8.37 28.16 -13.31 27.38 C-18.15 25.05 -20.91 22.17 -23.31 17.38 C-23.99 12.07 -23.58 8.42 -20.63 3.92 C-15.21 -2.42 -7.36 -3.61 0 0 Z " fill="#926AC1" transform="translate(347.3125,374.625)"/>
<path d="M0 0 C0 0.66 0 1.32 0 2 C0.66 2 1.32 2 2 2 C5.36 6.78 6.74 9.99 5.73 15.85 C4.45 19.61 2.4 21.96 -1 24 C-3.88 24.91 -5.9 25 -9 25 C-9.99 24.34 -10.98 23.68 -12 23 C-13.02 22.57 -13.02 22.57 -14.06 22.12 C-16.47 20.73 -17.06 19.59 -18 17 C-18 16.01 -18 15.02 -18 14 C-18.66 14 -19.32 14 -20 14 C-20.91 6.25 -20.91 6.25 -18.8 3.36 C-17.25 2.06 -17.25 2.06 -14 0 C-13.32 -0.43 -12.64 -0.87 -11.94 -1.31 C-7.5 -2.89 -4.16 -1.9 0 0 Z " fill="#FDFBFD" transform="translate(391,501)"/>
<path d="M0 0 C4.08 0.33 6.99 1.79 10.51 3.71 C16.77 7 23.1 9.99 29.57 12.84 C37.39 16.3 44.94 20.05 52.38 24.28 C51.39 24.77 51.39 24.77 50.38 25.28 C49.72 24.95 49.06 24.62 48.38 24.28 C48.05 25.6 47.72 26.92 47.38 28.28 C42.8 27.66 39.11 25.77 35.07 23.65 C29.5 20.79 23.9 18.15 18.13 15.71 C-0.02 7.94 -0.02 7.94 -2.94 3.07 C-3.16 2.48 -3.39 1.89 -3.62 1.28 C-2.62 0.28 -2.62 0.28 0 0 Z " fill="#B292D5" transform="translate(220.6171875,419.72265625)"/>
<path d="M0 0 C0.99 0.33 1.98 0.66 3 1 C3 1.66 3 2.32 3 3 C3.66 3 4.32 3 5 3 C6.24 6.71 6.46 9.1 6 13 C4.26 15.61 2.24 17.81 0 20 C-4.82 18.97 -9.06 16.96 -13 14 C-14.25 11 -14.25 11 -14 8 C-10.97 1.14 -7.33 -0.53 0 0 Z " fill="#A57FCD" transform="translate(434,629)"/>
<path d="M0 0 C15.62 1.5 33.68 12.44 44 24 C44.71 26.21 44.71 26.21 45 28 C43.68 27.34 42.36 26.68 41 26 C41.5 28.48 41.5 28.48 42 31 C39.05 29.69 37.24 28.36 35.12 25.94 C25.59 16.11 12.39 9.41 -1 7 C-1 6.67 -1 6.34 -1 6 C2.3 6 5.6 6 9 6 C9.33 5.34 9.66 4.68 10 4 C9.36 3.88 8.72 3.76 8.07 3.63 C7.24 3.47 6.41 3.3 5.56 3.12 C4.74 2.96 3.92 2.8 3.07 2.63 C2.38 2.42 1.7 2.22 1 2 C0.67 1.34 0.34 0.68 0 0 Z " fill="#8F6BC0" transform="translate(226,346)"/>
<path d="M0 0 C0.71 0.29 1.42 0.57 2.15 0.87 C4.96 1.98 7.78 3.03 10.62 4.06 C12.04 4.57 12.04 4.57 13.48 5.1 C16.84 6.3 19.67 7.14 23.23 7.32 C24.03 7.36 24.84 7.4 25.66 7.44 C26.5 7.48 27.33 7.52 28.19 7.56 C29.03 7.61 29.88 7.65 30.75 7.69 C32.83 7.8 34.92 7.9 37 8 C37 8.66 37 9.32 37 10 C40.63 9.67 44.26 9.34 48 9 C39.36 15.48 27.41 15.27 17 14 C10.54 12.51 2.32 10.29 -2 5 C-1.34 3.35 -0.68 1.7 0 0 Z " fill="#7A55B2" transform="translate(518,663)"/>
<path d="M0 0 C3.77 0.71 5.4 1.74 8 4.56 C9.06 7.44 9.06 7.44 9 10.56 C5.99 16.07 5.99 16.07 3 17.56 C-1.01 18.1 -2.54 17.89 -5.88 15.5 C-8 12.56 -8 12.56 -8.62 9.06 C-7.68 3.75 -5.38 1.01 0 0 Z " fill="#9A75C9" transform="translate(151,664.4375)"/>
<path d="M0 0 C2.5 1.5 2.5 1.5 4 4 C4.6 6.81 4.66 9.2 4 12 C1.46 14.99 -0.16 15.84 -4 16.56 C-8.14 15.79 -9.55 14.39 -12 11 C-12.62 7.04 -12.61 4.99 -10.5 1.56 C-6.97 -0.64 -4.05 -0.8 0 0 Z " fill="#AA8BD0" transform="translate(622,345)"/>
<path d="M0 0 C0.66 0.33 1.32 0.66 2 1 C1.65 3.79 1.19 4.83 -0.93 6.75 C-7.96 11.49 -15.09 15.43 -22.94 18.62 C-25.97 19.75 -25.97 19.75 -27.56 21.69 C-29 23 -29 23 -32.06 23.31 C-35 23 -35 23 -37 21 C-37.25 18 -37.25 18 -37 15 C-35 13 -35 13 -32.12 12.69 C-28.74 13.03 -27.46 13.73 -25 16 C-25 15.34 -25 14.68 -25 14 C-21.37 13.01 -17.74 12.02 -14 11 C-14 10.34 -14 9.68 -14 9 C-13.41 8.69 -12.82 8.37 -12.21 8.05 C-7.81 5.67 -3.79 3.3 0 0 Z " fill="#3A236C" transform="translate(560,436)"/>
<path d="M0 0 C2.56 0.31 2.56 0.31 4.44 1.5 C5.56 3.31 5.56 3.31 5.38 5.88 C4.56 8.31 4.56 8.31 2.56 10.31 C1 10.41 -0.56 10.44 -2.12 10.44 C-11.28 11.08 -19.31 16.45 -26.7 21.57 C-29.44 23.31 -29.44 23.31 -32.44 23.31 C-33.1 23.64 -33.76 23.97 -34.44 24.31 C-33.07 21.06 -31.73 19.52 -28.77 17.62 C-28.04 17.15 -27.31 16.68 -26.56 16.2 C-25.8 15.72 -25.04 15.24 -24.25 14.75 C-23.51 14.27 -22.76 13.79 -22 13.29 C-11.05 6.31 -11.05 6.31 -5.44 6.31 C-5.31 5.69 -5.19 5.08 -5.06 4.44 C-4.15 1.34 -3.21 0.41 0 0 Z " fill="#3E2672" transform="translate(246.4375,577.6875)"/>
<path d="M0 0 C1.94 1.06 1.94 1.06 3 3 C3.75 9.79 3.75 9.79 1.44 13.5 C-1.92 15.57 -4.12 15.49 -8 15 C-10.44 14.06 -10.44 14.06 -12 12 C-12.63 8.88 -12.64 6.12 -12 3 C-8.42 -1.56 -5.4 -1.5 0 0 Z " fill="#9570C3" transform="translate(585,489)"/>
<path d="M0 0 C1.18 2.35 1.13 3.82 1.12 6.44 C1.13 7.22 1.13 8 1.13 8.81 C1 11 1 11 0 14 C-3.05 15.52 -5.64 15.24 -9 15 C-11.67 13.4 -11.95 12.18 -12.81 9.19 C-13.03 5.54 -12.6 3.28 -11 0 C-7.59 -1.9 -3.67 -0.76 0 0 Z " fill="#B391D5" transform="translate(345,379)"/>
<path d="M0 0 C0 0.66 0 1.32 0 2 C0.64 2.14 1.28 2.29 1.94 2.44 C4 3 4 3 5 4 C5.24 11.52 5.24 11.52 4 14 C0.47 15.18 -2.29 15.2 -6 15 C-9 13 -9 13 -9.51 10.62 C-9.57 9.71 -9.63 8.81 -9.69 7.88 C-9.75 6.96 -9.82 6.05 -9.89 5.12 C-9.92 4.42 -9.96 3.72 -10 3 C-6.49 0.59 -4.27 -0.37 0 0 Z " fill="#B28FD5" transform="translate(188,531)"/>
<path d="M0 0 C0 0.66 0 1.32 0 2 C0.66 2 1.32 2 2 2 C5.36 6.78 6.74 9.99 5.73 15.85 C4.45 19.61 2.4 21.96 -1 24 C-3.88 24.91 -5.9 25 -9 25 C-9.99 24.34 -10.98 23.68 -12 23 C-13.02 22.57 -13.02 22.57 -14.06 22.12 C-16.47 20.73 -17.06 19.59 -18 17 C-18 16.01 -18 15.02 -18 14 C-18.66 14 -19.32 14 -20 14 C-20.91 6.25 -20.91 6.25 -18.8 3.36 C-17.25 2.06 -17.25 2.06 -14 0 C-13.32 -0.43 -12.64 -0.87 -11.94 -1.31 C-7.5 -2.89 -4.16 -1.9 0 0 Z M-15 2 C-17.96 6.44 -17.66 10.79 -17 16 C-15.1 18.66 -13.86 19.57 -11 21 C-6.51 21.52 -3.22 20.83 0.57 18.46 C2.95 16.03 3.15 13.57 3.28 10.26 C2.84 6.74 1.29 4.62 -1 2 C-3.35 0.82 -4.82 0.87 -7.44 0.88 C-8.22 0.87 -9 0.87 -9.81 0.87 C-12.18 0.92 -12.18 0.92 -15 2 Z " fill="#F3D6FB" transform="translate(391,501)"/>
<path d="M0 0 C0.66 0.33 1.32 0.66 2 1 C2 1.66 2 2.32 2 3 C0.73 4.08 -0.59 5.08 -1.94 6.06 C-7.28 10.22 -12.04 14.84 -16.81 19.62 C-17.91 20.72 -17.91 20.72 -19.02 21.83 C-22.12 24.96 -25.11 28.06 -27.82 31.52 C-28.54 32.34 -29.26 33.16 -30 34 C-30.99 34 -31.98 34 -33 34 C-31.75 29.43 -29.23 27.04 -25.91 23.88 C-24.06 22.05 -22.37 20.17 -20.69 18.19 C-17.86 14.93 -14.94 11.78 -11.94 8.69 C-11.14 7.87 -10.35 7.05 -9.53 6.2 C-6.84 3.86 -4.22 2.48 -1 1 C-0.67 0.67 -0.34 0.34 0 0 Z " fill="#432B79" transform="translate(215,599)"/>
<path d="M0 0 C0.5 0.99 0.5 0.99 1 2 C-0.39 2.94 -1.79 3.88 -3.19 4.81 C-3.96 5.33 -4.74 5.86 -5.54 6.39 C-7.18 7.46 -8.84 8.49 -10.53 9.46 C-13.06 11.03 -15.12 12.75 -17.31 14.75 C-19.54 16.78 -21.74 18.79 -24.08 20.69 C-31.07 26.4 -36.85 33.48 -40 42 C-40.98 44.01 -41.98 46.01 -43 48 C-44.16 45.2 -44.04 44.11 -42.95 41.22 C-32.92 22.6 -18.55 9.95 0 0 Z " fill="#251259" transform="translate(478,437)"/>
<path d="M0 0 C0.99 0 1.98 0 3 0 C3.33 1.32 3.66 2.64 4 4 C4.66 4 5.32 4 6 4 C6.9 11.52 6.9 11.52 4.84 14.9 C2.57 17.28 0.54 18.77 -2.5 20.06 C-5.89 19.98 -8.1 18.68 -11 17 C-11 16.01 -11 15.02 -11 14 C-11.66 14 -12.32 14 -13 14 C-14.43 5.57 -14.43 5.57 -12 1 C-11.01 1.33 -10.02 1.66 -9 2 C-9.29 3.92 -9.59 5.84 -9.88 7.76 C-10.12 10.48 -10.12 10.48 -9 15 C-5.37 15 -1.74 15 2 15 C2 10.38 2 5.76 2 1 C1.34 0.67 0.68 0.34 0 0 Z " fill="#A780D0" transform="translate(343,378)"/>
<path d="M0 0 C2.38 2 2.38 2 4 4 C3.34 6.31 2.68 8.62 2 11 C-0.64 11 -3.28 11 -6 11 C-6 10.34 -6 9.68 -6 9 C-6.66 9 -7.32 9 -8 9 C-8.33 6.69 -8.66 4.38 -9 2 C-5.51 -0.33 -4.11 -0.5 0 0 Z " fill="#A683CB" transform="translate(154,665)"/>
<path d="M0 0 C1.27 3.39 0.78 6.26 0.25 9.78 C-0.02 12.14 0.04 14.38 0.12 16.75 C0.19 20.57 -0.49 22.07 -3 25 C-3.25 27.67 -3.25 27.67 -3 30 C-5.57 27.43 -5.97 25.71 -6.13 22.11 C-6.12 18.74 -6.09 15.37 -6 12 C-5.98 11.26 -5.97 10.53 -5.95 9.77 C-5.67 6.14 -4.87 4.85 -2.44 2.06 C-1.63 1.38 -0.83 0.7 0 0 Z " fill="#8055BD" transform="translate(324,603)"/>
<path d="M0 0 C0.72 0 1.44 0.01 2.19 0.01 C2.91 0.01 3.63 0 4.38 0 C6.19 0.13 6.19 0.13 7.19 1.13 C7.55 7.59 7.55 7.59 5.19 11.13 C1.69 11.51 1.69 11.51 -1.81 11.13 C-3.81 8.13 -3.81 8.13 -3.5 4.51 C-2.62 0.19 -2.62 0.19 0 0 Z " fill="#C0A3DB" transform="translate(428.8125,631.8671875)"/>
<path d="M0 0 C2.32 1.18 2.32 1.18 4 3 C4.46 5.59 4.46 5.59 4.38 8.5 C4.36 9.94 4.36 9.94 4.34 11.41 C4 14 4 14 2 17 C-0.93 18.3 -3.8 18.87 -7 19 C-11 17.26 -12.53 16.01 -14.38 12.06 C-15.75 5.32 -15.75 5.32 -13.69 1.69 C-9.46 -0.97 -4.86 -0.79 0 0 Z M-13 4 C-12.91 5.63 -12.8 7.25 -12.69 8.88 C-12.63 9.78 -12.57 10.68 -12.51 11.62 C-12.21 14.36 -12.21 14.36 -9 16 C-5.29 16.2 -2.53 16.18 1 15 C2.11 12.77 2.16 11.47 2.19 9 C2.2 8.3 2.22 7.6 2.23 6.88 C2.17 4.75 2.17 4.75 0 3 C-0.99 3 -1.98 3 -3 3 C-3 2.34 -3 1.68 -3 1 C-7.27 0.63 -9.49 1.59 -13 4 Z " fill="#A27DCC" transform="translate(191,530)"/>
<path d="M0 0 C0.33 0.66 0.66 1.32 1 2 C1.66 2 2.32 2 3 2 C3.66 3.65 4.32 5.3 5 7 C7.37 7.42 7.37 7.42 10 7 C11.68 4.64 11.68 4.64 13 2 C13.99 1.34 14.98 0.68 16 0 C16.24 2.86 16.42 5.2 16 8 C13.46 10.99 11.84 11.84 8 12.56 C3.86 11.79 2.45 10.39 0 7 C-0.31 3.19 -0.31 3.19 0 0 Z " fill="#9674C1" transform="translate(610,349)"/>
<path d="M0 0 C3 0.25 3 0.25 5 2.25 C5.25 5.25 5.25 5.25 5 8.25 C3 10.25 3 10.25 0 10.5 C-3 10.25 -3 10.25 -5 8.25 C-5.25 5.25 -5.25 5.25 -5 2.25 C-3 0.25 -3 0.25 0 0 Z " fill="#AF89D6" transform="translate(528,448.75)"/>
<path d="M0 0 C0.66 0.33 1.32 0.66 2 1 C1.67 2.65 1.34 4.3 1 6 C0.01 5.67 -0.98 5.34 -2 5 C-4.78 7.77 -7.55 10.55 -10.3 13.34 C-11.49 14.54 -12.68 15.74 -13.88 16.94 C-14.46 17.53 -15.05 18.13 -15.65 18.74 C-19.6 22.71 -23.7 26.4 -28 30 C-28.66 29.67 -29.32 29.34 -30 29 C-26.7 25.67 -23.39 22.34 -20.08 19.02 C-18.95 17.89 -17.83 16.76 -16.71 15.63 C-15.09 14 -13.46 12.37 -11.84 10.74 C-11.34 10.24 -10.85 9.74 -10.34 9.23 C-7.04 5.93 -3.61 2.94 0 0 Z " fill="#28125B" transform="translate(318,609)"/>
<path d="M0 0 C0.33 2.31 0.66 4.62 1 7 C-2.85 9.57 -4.59 8.83 -9 8 C-10.32 2.61 -10.32 2.61 -9 0.06 C-5.89 -1.59 -3.34 -0.69 0 0 Z " fill="#C3A9DC" transform="translate(344,382)"/>
<path d="M0 0 C2.56 0.31 2.56 0.31 4.44 1.5 C5.56 3.31 5.56 3.31 5.38 5.88 C4.56 8.31 4.56 8.31 2.56 10.31 C0.06 10.56 0.06 10.56 -2.44 10.31 C-4.44 8.31 -4.44 8.31 -4.69 5.31 C-4.38 1.58 -3.78 0.48 0 0 Z " fill="#AC87D5" transform="translate(246.4375,577.6875)"/>
<path d="M0 0 C0.31 2.75 0.31 2.75 0 6 C-2.5 8.38 -2.5 8.38 -5 10 C-8.88 8.12 -8.88 8.12 -10 7 C-10.29 4.24 -10.32 2.56 -8.94 0.12 C-5.88 -1.65 -3.34 -0.69 0 0 Z " fill="#C2A6DB" transform="translate(191,534)"/>
<path d="M0 0 C8.02 0.19 8.02 0.19 11.56 3.12 C13.38 6.76 13.67 8.99 13 13 C10.5 14.94 10.5 14.94 8 16 C8 12.7 8 9.4 8 6 C6.68 5.34 5.36 4.68 4 4 C2.67 3.33 1.33 2.67 0 2 C0 1.34 0 0.68 0 0 Z " fill="#9771C5" transform="translate(187,527)"/>
<path d="M0 0 C2.87 0.57 3.86 0.86 6 3 C6.12 6.12 6.12 6.12 6 9 C3.65 10.43 2.52 11.09 -0.25 10.62 C-0.83 10.42 -1.4 10.21 -2 10 C-3.06 6.62 -3.21 5.42 -1.56 2.19 C-1.05 1.47 -0.53 0.74 0 0 Z " fill="#B291DB" transform="translate(579,489)"/>
<path d="M0 0 C1.36 0.37 1.36 0.37 2.75 0.75 C2.75 1.08 2.75 1.41 2.75 1.75 C0.77 2.08 -1.21 2.41 -3.25 2.75 C-4.29 7.37 -4.29 7.37 -3.25 11.75 C-0.93 12.16 1.41 12.49 3.75 12.75 C4.41 9.45 5.07 6.15 5.75 2.75 C7.75 4.75 7.75 4.75 8.12 7.06 C7.61 10.75 6.52 12.27 3.75 14.75 C0.31 15.11 -2.12 15.31 -5.25 13.75 C-5.25 13.09 -5.25 12.43 -5.25 11.75 C-5.91 11.75 -6.57 11.75 -7.25 11.75 C-7.73 4.51 -7.73 4.51 -5.62 1.19 C-3.25 -0.25 -3.25 -0.25 0 0 Z " fill="#B592D5" transform="translate(430.25,630.25)"/>
<path d="M0 0 C1.23 0.01 1.23 0.01 2.48 0.03 C3.42 0.04 3.42 0.04 4.38 0.06 C4.7 1.71 5.04 3.36 5.38 5.06 C0.75 5.39 -3.87 5.72 -8.62 6.06 C-6.24 0.09 -5.84 -0.08 0 0 Z " fill="#9B73C8" transform="translate(339.625,372.9375)"/>
<path d="M0 0 C4.74 1.83 9.36 3.92 14 6 C10.6 7.77 7.87 8.77 4 9 C0.62 7.56 0.62 7.56 -2 6 C-1.34 4.02 -0.68 2.04 0 0 Z " fill="#8660BB" transform="translate(518,663)"/>
<path d="M0 0 C0.33 0.99 0.66 1.98 1 3 C0.58 3.39 0.15 3.78 -0.29 4.18 C-6.58 10.18 -11.92 16.8 -15 25 C-15.98 27.01 -16.98 29.01 -18 31 C-19.16 28.2 -19.04 27.11 -17.95 24.22 C-13.09 15.2 -7.26 7.26 0 0 Z " fill="#321A67" transform="translate(453,454)"/>
<path d="M0 0 C0.66 0.33 1.32 0.66 2 1 C1.01 1.99 0.02 2.98 -1 4 C-1.66 3.67 -2.32 3.34 -3 3 C-2.01 2.01 -1.02 1.02 0 0 Z M-4 4 C-2.61 8.17 -3.07 11.9 -3.31 16.25 C-3.35 17.08 -3.38 17.92 -3.42 18.78 C-3.68 23.82 -4.41 28.21 -6 33 C-7.49 28.54 -6.92 24.28 -6.69 19.62 C-6.63 18.21 -6.63 18.21 -6.58 16.76 C-6.18 8.17 -6.18 8.17 -4 4 Z " fill="#3B1C71" transform="translate(392,568)"/>
<path d="M0 0 C0.78 0.04 1.57 0.08 2.38 0.12 C2.76 2.45 3.09 4.79 3.38 7.12 C2.38 8.12 2.38 8.12 -0.62 8.25 C-3.62 8.12 -3.62 8.12 -4.62 7.12 C-4.81 4.69 -4.81 4.69 -4.62 2.12 C-2.62 0.12 -2.62 0.12 0 0 Z " fill="#AF90D1" transform="translate(476.625,316.875)"/>
<path d="M0 0 C0.66 0.99 1.32 1.98 2 3 C4.06 3.72 4.06 3.72 6 4 C-0.15 11.48 -0.15 11.48 -4 14 C-4.66 13.67 -5.32 13.34 -6 13 C-5.73 12.48 -5.47 11.96 -5.2 11.43 C-3.29 7.67 -1.48 3.95 0 0 Z " fill="#522E90" transform="translate(447,404)"/>
<path d="M0 0 C2.44 0.19 2.44 0.19 3.44 1.19 C3.62 3.62 3.62 3.62 3.44 6.19 C2.78 6.85 2.12 7.51 1.44 8.19 C-1.19 7.81 -1.19 7.81 -3.56 7.19 C-4.19 4.81 -4.19 4.81 -4.56 2.19 C-2.56 0.19 -2.56 0.19 0 0 Z " fill="#B79CDC" transform="translate(322.5625,681.8125)"/>
<path d="M0 0 C0.66 0 1.32 0 2 0 C3.16 4.07 3.26 5.52 1.19 9.31 C-1 12 -1 12 -3 13 C-5 13.04 -7 13.04 -9 13 C-8.01 12.67 -7.02 12.34 -6 12 C-6 11.34 -6 10.68 -6 10 C-5.2 9.42 -4.39 8.85 -3.56 8.25 C-0.48 5.54 -0.27 4.01 0 0 Z " fill="#906BBA" transform="translate(157,669)"/>
<path d="M0 0 C1.45 0.03 1.45 0.03 2.94 0.06 C3.56 2.44 3.56 2.44 3.94 5.06 C3.28 5.72 2.62 6.38 1.94 7.06 C-0.69 6.69 -0.69 6.69 -3.06 6.06 C-3.44 4.41 -3.78 2.74 -4.06 1.06 C-3.06 0.06 -3.06 0.06 0 0 Z " fill="#9E82C3" transform="translate(292.0625,351.9375)"/>
<path d="M0 0 C3.88 1.88 3.88 1.88 5 3 C5.58 10.07 5.58 10.07 3.44 13.5 C0.18 15.5 -2.25 15.29 -6 15 C-3.77 12.77 -1.91 12.12 1 11 C2.32 9.89 2.32 9.89 2.25 7.12 C2.29 4.01 2.29 4.01 0.5 2.12 C0 1.75 -0.49 1.38 -1 1 C-0.67 0.67 -0.34 0.34 0 0 Z " fill="#8965B8" transform="translate(583,489)"/>
<path d="M0 0 C1.65 0.33 3.3 0.66 5 1 C5.33 1.99 5.66 2.98 6 4 C4.81 5.5 4.81 5.5 3 7 C0.31 7.19 0.31 7.19 -2 7 C-2.33 6.34 -2.66 5.68 -3 5 C-1.56 2.38 -1.56 2.38 0 0 Z " fill="#AE91D1" transform="translate(150,668)"/>
<path d="M0 0 C1.68 0.29 3.34 0.62 5 1 C5 2.65 5 4.3 5 6 C2.69 6.62 2.69 6.62 0 7 C-0.99 6.34 -1.98 5.68 -3 5 C-1.12 1.12 -1.12 1.12 0 0 Z " fill="#CAB4DE" transform="translate(429,634)"/>
<path d="M0 0 C0.99 0.33 1.98 0.66 3 1 C2.01 1.52 1.02 2.03 0 2.56 C-3.8 4.72 -6.9 7.39 -10.13 10.32 C-12.35 12.31 -14.65 14.17 -17 16 C-13.55 8.24 -7.44 3.72 0 0 Z " fill="#7052AC" transform="translate(171,405)"/>
<path d="M0 0 C0.33 0 0.66 0 1 0 C0.88 5.79 -0.81 10.23 -3.38 15.38 C-3.83 16.3 -3.83 16.3 -4.3 17.25 C-5.94 20.44 -6.96 21.97 -10 24 C-8.36 18.45 -8.36 18.45 -6.59 16.25 C-4.51 13.31 -3.45 10.14 -2.31 6.75 C-2.09 6.1 -1.86 5.45 -1.63 4.78 C-1.08 3.19 -0.54 1.6 0 0 Z " fill="#B08DD8" transform="translate(383,602)"/>
<path d="M0 0 C-7.47 2.77 -14.07 3.37 -22 3 C-21.67 2.34 -21.34 1.68 -21 1 C-18.32 0.57 -15.7 0.26 -13 0 C-12.21 -0.1 -11.42 -0.21 -10.61 -0.32 C-9.44 -0.47 -9.44 -0.47 -8.25 -0.62 C-7.53 -0.72 -6.82 -0.82 -6.08 -0.91 C-3.85 -1.01 -2.12 -0.64 0 0 Z " fill="#7655AA" transform="translate(256,661)"/>
<path d="M0 0 C0.66 0.33 1.32 0.66 2 1 C1.67 2.65 1.34 4.3 1 6 C0.01 5.67 -0.98 5.34 -2 5 C-2.78 5.78 -3.57 6.57 -4.38 7.38 C-5.92 8.92 -7.46 10.46 -9 12 C-9.99 11.67 -10.98 11.34 -12 11 C-8.04 7.37 -4.08 3.74 0 0 Z " fill="#32186C" transform="translate(318,609)"/>
<path d="M0 0 C0.78 0.04 1.57 0.08 2.38 0.12 C1.9 4.37 -0.59 6.32 -3.62 9.12 C-4.62 8.12 -4.62 8.12 -4.81 5.19 C-4.57 1.29 -3.99 0.19 0 0 Z " fill="#B38EDE" transform="translate(246.625,577.875)"/>
<path d="M0 0 C3.44 1.5 3.44 1.5 6 3 C5.67 3.66 5.34 4.32 5 5 C2.85 4.72 0.71 4.43 -1.44 4.12 C-2.63 3.96 -3.83 3.8 -5.06 3.63 C-6.03 3.42 -7 3.22 -8 3 C-8.33 2.34 -8.66 1.68 -9 1 C-5.93 -0.54 -3.4 -0.23 0 0 Z " fill="#8562B1" transform="translate(189,524)"/>
<path d="M0 0 C1.21 0.03 1.21 0.03 2.44 0.06 C3.06 1.94 3.06 1.94 3.44 4.06 C2.78 4.72 2.12 5.38 1.44 6.06 C-1.19 5.69 -1.19 5.69 -3.56 5.06 C-3.56 0.09 -3.56 0.09 0 0 Z " fill="#CCB7E0" transform="translate(339.5625,382.9375)"/>
<path d="M0 0 C1.98 0.5 1.98 0.5 4 1 C3.34 1.66 2.68 2.32 2 3 C1.83 6.08 1.83 6.08 2 9 C6.65 9.27 6.65 9.27 11 8 C10.67 8.99 10.34 9.98 10 11 C7.03 11 4.06 11 1 11 C-1.27 6.47 -0.93 4.82 0 0 Z " fill="#BB9BD9" transform="translate(333,381)"/>
<path d="M0 0 C0.66 0.33 1.32 0.66 2 1 C0.36 2.82 -1.12 4.07 -3.25 5.31 C-6.84 7.51 -9.87 10.21 -13 13 C-10.17 6.93 -5.53 3.47 0 0 Z " fill="#7856B5" transform="translate(201,349)"/>
<path d="M0 0 C6.07 1.04 11.44 2.34 17 5 C16.67 5.66 16.34 6.32 16 7 C13.03 6.5 13.03 6.5 10 6 C10 5.34 10 4.68 10 4 C9.36 3.88 8.72 3.76 8.07 3.63 C7.24 3.47 6.41 3.3 5.56 3.12 C4.74 2.96 3.92 2.8 3.07 2.63 C2.38 2.42 1.7 2.22 1 2 C0.67 1.34 0.34 0.68 0 0 Z " fill="#805EB4" transform="translate(226,346)"/>
<path d="M0 0 C1.75 -0.03 3.5 -0.05 5.25 -0.06 C6.71 -0.08 6.71 -0.08 8.2 -0.1 C10.66 -0.01 12.66 0.29 15 1 C15 1.66 15 2.32 15 3 C10.05 3 5.1 3 0 3 C0 2.01 0 1.02 0 0 Z " fill="#7958B0" transform="translate(522,360)"/>
<path d="M0 0 C2.06 0.44 2.06 0.44 4 1 C4.33 2.32 4.66 3.64 5 5 C3.35 5.33 1.7 5.66 0 6 C-0.38 4.34 -0.71 2.68 -1 1 C-0.67 0.67 -0.34 0.34 0 0 Z " fill="#AA88D6" transform="translate(474,680)"/>
<path d="M0 0 C2 2 2 2 2 6 C2.66 6.33 3.32 6.66 4 7 C3.34 7 2.68 7 2 7 C2.33 8.32 2.66 9.64 3 11 C2.01 11 1.02 11 0 11 C-1.49 8.01 -1.12 5.29 -1 2 C-0.67 1.34 -0.34 0.68 0 0 Z " fill="#8C6CBF" transform="translate(144,668)"/>
<path d="M0 0 C0 0.99 0 1.98 0 3 C-3.67 5.78 -7.53 7.03 -12 8 C-14.21 7.55 -14.21 7.55 -16 7 C-15.1 6.66 -14.19 6.32 -13.26 5.98 C-12.08 5.53 -10.9 5.08 -9.69 4.62 C-7.93 3.96 -7.93 3.96 -6.14 3.29 C-2.91 2.09 -2.91 2.09 0 0 Z " fill="#2A1255" transform="translate(362,637)"/>
<path d="M0 0 C0.99 0.33 1.98 0.66 3 1 C1.75 4.46 0.32 7.15 -2 10 C-2.66 9.01 -3.32 8.02 -4 7 C-2.68 4.69 -1.36 2.38 0 0 Z " fill="#3B2974" transform="translate(613,360)"/>
<path d="M0 0 C0 3 0 3 -1.97 5.04 C-2.8 5.75 -3.64 6.46 -4.5 7.19 C-5.34 7.9 -6.17 8.62 -7.03 9.36 C-7.68 9.9 -8.33 10.44 -9 11 C-9.99 10.67 -10.98 10.34 -12 10 C-10.56 8.71 -9.13 7.41 -7.69 6.12 C-6.89 5.41 -6.09 4.69 -5.26 3.95 C-3 2 -3 2 0 0 Z " fill="#866BBC" transform="translate(233,614)"/>
<path d="M0 0 C0.66 0.33 1.32 0.66 2 1 C0.4 2.46 -1.21 3.92 -2.81 5.38 C-3.71 6.19 -4.6 7 -5.52 7.84 C-8 10 -8 10 -11 12 C-10.19 9.56 -10.19 9.56 -9 7 C-8.01 6.67 -7.02 6.34 -6 6 C-6 5.34 -6 4.68 -6 4 C-4.04 2.61 -2.04 1.27 0 0 Z " fill="#845BBA" transform="translate(235,620)"/>
<path d="M0 0 C-2 2 -2 2 -4.25 2.81 C-7.8 4.34 -10.11 6.44 -13 9 C-11.13 4.97 -9.53 1.8 -5.5 -0.31 C-3 -1 -3 -1 0 0 Z " fill="#643CA5" transform="translate(207,355)"/>
<path d="M0 0 C0.66 0.33 1.32 0.66 2 1 C1.67 1.66 1.34 2.32 1 3 C1.66 3.33 2.32 3.66 3 4 C1.02 4.66 -0.96 5.32 -3 6 C-3.66 5.01 -4.32 4.02 -5 3 C-2.62 1.44 -2.62 1.44 0 0 Z " fill="#382168" transform="translate(231,587)"/>
<path d="M0 0 C0.33 0 0.66 0 1 0 C1.12 2.38 1.12 2.38 1 5 C0.34 5.66 -0.32 6.32 -1 7 C-3.62 6.62 -3.62 6.62 -6 6 C-4 4 -2 2 0 0 Z " fill="#A286CA" transform="translate(325,683)"/>
<path d="M0 0 C0.66 0.33 1.32 0.66 2 1 C-0.66 4.99 -3.5 6.5 -8 8 C-6.5 3.79 -3.71 2.26 0 0 Z " fill="#A787CC" transform="translate(300,578)"/>
<path d="M0 0 C1.21 0.01 1.21 0.01 2.45 0.03 C3.37 0.04 3.37 0.04 4.31 0.06 C4.31 0.39 4.31 0.72 4.31 1.06 C2.49 1.19 2.49 1.19 0.62 1.31 C-3.47 1.8 -5.69 3.16 -8.69 6.06 C-8.69 3.06 -8.69 3.06 -7.69 1.06 C-4.81 0.1 -2.99 -0.04 0 0 Z " fill="#FAEBFD" transform="translate(383.6875,501.9375)"/>
<path d="M0 0 C6.62 -0.12 6.62 -0.12 10 1 C10.33 2.65 10.66 4.3 11 6 C10.67 5.34 10.34 4.68 10 4 C7.66 3.09 7.66 3.09 4.94 2.38 C4.02 2.11 3.1 1.85 2.15 1.59 C1.09 1.3 1.09 1.3 0 1 C0 0.67 0 0.34 0 0 Z " fill="#A982D0" transform="translate(427,629)"/>
<path d="M0 0 C0.99 0.33 1.98 0.66 3 1 C2.34 1.66 1.68 2.32 1 3 C0.54 5.43 0.54 5.43 0.38 8.12 C0.3 9.04 0.23 9.95 0.15 10.88 C0.1 11.58 0.05 12.28 0 13 C-2.58 8.6 -1.89 5.91 -1 1 C-0.67 0.67 -0.34 0.34 0 0 Z " fill="#A27BCC" transform="translate(331,379)"/>
<path d="M0 0 C0.66 0 1.32 0 2 0 C1.67 0.99 1.34 1.98 1 3 C-2.15 4.05 -4.39 4.1 -7.69 4.06 C-8.68 4.05 -9.68 4.04 -10.7 4.04 C-11.84 4.02 -11.84 4.02 -13 4 C-13 3.67 -13 3.34 -13 3 C-12.15 2.87 -11.29 2.73 -10.41 2.6 C-9.31 2.42 -8.2 2.24 -7.06 2.06 C-5.96 1.89 -4.86 1.71 -3.72 1.54 C-1.1 1.28 -1.1 1.28 0 0 Z " fill="#260D58" transform="translate(438,651)"/>
<path d="M0 0 C0 4.39 -2.13 5.77 -5 9 C-5.33 8.01 -5.66 7.02 -6 6 C-2.84 1.42 -2.84 1.42 0 0 Z " fill="#8564BD" transform="translate(331,375)"/>
<path d="M0 0 C2.94 0.31 2.94 0.31 4.94 2.31 C1.31 2.64 -2.32 2.97 -6.06 3.31 C-3.06 0.31 -3.06 0.31 0 0 Z " fill="#9373C1" transform="translate(151.0625,664.6875)"/>
<path d="M0 0 C-1.29 0.67 -2.58 1.34 -3.88 2 C-4.59 2.37 -5.31 2.74 -6.05 3.12 C-8 4 -8 4 -10 4 C-10 3.34 -10 2.68 -10 2 C-4.11 -1.35 -4.11 -1.35 0 0 Z " fill="#9F82C9" transform="translate(284,591)"/>
<path d="M0 0 C4.06 0.47 7.47 0.88 11 3 C11 3.33 11 3.66 11 4 C6.55 4.39 3.86 3.15 0 1 C0 0.67 0 0.34 0 0 Z " fill="#A486D0" transform="translate(562,550)"/>
<path d="M0 0 C1.21 0.03 1.21 0.03 2.44 0.06 C-2.31 4.94 -2.31 4.94 -4.56 6.06 C-3.49 0.09 -3.49 0.09 0 0 Z " fill="#B695DB" transform="translate(527.5625,448.9375)"/>
<path d="M0 0 C4.83 0.41 6.83 2.46 10 6 C5.57 4.79 3.02 3.48 0 0 Z " fill="#744AB2" transform="translate(197,412)"/>
<path d="M0 0 C4.95 0.99 4.95 0.99 10 2 C9.67 2.99 9.34 3.98 9 5 C7.68 4.55 6.37 4.09 5.06 3.62 C4.33 3.37 3.6 3.11 2.85 2.85 C1 2 1 2 0 0 Z " fill="#A77FD6" transform="translate(484,578)"/>
<path d="M0 0 C0.33 0.66 0.66 1.32 1 2 C-4.18 5.22 -4.18 5.22 -6 6 C-6.99 5.67 -7.98 5.34 -9 5 C-6.03 3.35 -3.06 1.7 0 0 Z " fill="#2A175F" transform="translate(478,437)"/>
<path d="M0 0 C1.98 0 3.96 0 6 0 C4.88 1.5 4.88 1.5 3 3 C-0.19 3.19 -0.19 3.19 -3 3 C-2.01 2.67 -1.02 2.34 0 2 C0 1.34 0 0.68 0 0 Z " fill="#815EAD" transform="translate(151,679)"/>
<path d="M0 0 C-0.99 1.49 -0.99 1.49 -2 3 C-3.32 2.67 -4.64 2.34 -6 2 C-6 1.34 -6 0.68 -6 0 C-3.51 -1.25 -2.59 -0.78 0 0 Z " fill="#432B79" transform="translate(224,595)"/>
<path d="M0 0 C-1.39 2.78 -3.16 2.98 -6 4 C-6 2.68 -6 1.36 -6 0 C-3.51 -1.25 -2.59 -0.78 0 0 Z " fill="#3D2871" transform="translate(539,452)"/>
<path d="M0 0 C2.97 0 5.94 0 9 0 C7.35 1.32 5.7 2.64 4 4 C3.67 3.01 3.34 2.02 3 1 C2.01 0.67 1.02 0.34 0 0 Z " fill="#8F69BD" transform="translate(335,373)"/>
</svg>
